<?xml version="1.0" encoding="UTF-8"?>
<svg version="1.1" xmlns="http://www.w3.org/2000/svg" width="3591" height="1197">
<path d="M0 0 C83.16 0 166.32 0 252 0 C252 20.79 252 41.58 252 63 C272.79 63 293.58 63 315 63 C315 104.58 315 146.16 315 189 C335.79 189 356.58 189 378 189 C378 209.79 378 230.58 378 252 C398.79 252 419.58 252 441 252 C441 272.79 441 293.58 441 315 C461.79 315 482.58 315 504 315 C504 335.79 504 356.58 504 378 C524.79 378 545.58 378 567 378 C567 398.79 567 419.58 567 441 C587.79 441 608.58 441 630 441 C630 461.79 630 482.58 630 504 C650.79 504 671.58 504 693 504 C693 524.79 693 545.58 693 567 C713.79 567 734.58 567 756 567 C756 587.79 756 608.58 756 630 C797.58 630 839.16 630 882 630 C882 650.79 882 671.58 882 693 C923.58 693 965.16 693 1008 693 C1008 713.79 1008 734.58 1008 756 C1028.79 756 1049.58 756 1071 756 C1071 776.79 1071 797.58 1071 819 C1008.63 819 946.26 819 882 819 C882 798.21 882 777.42 882 756 C819.63 756 757.26 756 693 756 C693 859.95 693 963.9 693 1071 C651.42 1071 609.84 1071 567 1071 C567 1050.21 567 1029.42 567 1008 C587.79 1008 608.58 1008 630 1008 C630 924.84 630 841.68 630 756 C567.63 756 505.26 756 441 756 C441 859.95 441 963.9 441 1071 C399.42 1071 357.84 1071 315 1071 C315 1050.21 315 1029.42 315 1008 C335.79 1008 356.58 1008 378 1008 C378 924.84 378 841.68 378 756 C274.05 756 170.1 756 63 756 C63 735.21 63 714.42 63 693 C42.21 693 21.42 693 0 693 C0 672.21 0 651.42 0 630 C-20.79 630 -41.58 630 -63 630 C-63 567.63 -63 505.26 -63 441 C-42.21 441 -21.42 441 0 441 C0 357.84 0 274.68 0 189 C-41.58 189 -83.16 189 -126 189 C-126 168.21 -126 147.42 -126 126 C-84.42 126 -42.84 126 0 126 C0 84.42 0 42.84 0 0 Z " fill="#000000" transform="translate(2520,64)"/>
<path d="M0 0 C83.16 0 166.32 0 252 0 C252 20.79 252 41.58 252 63 C272.79 63 293.58 63 315 63 C315 104.58 315 146.16 315 189 C335.79 189 356.58 189 378 189 C378 209.79 378 230.58 378 252 C398.79 252 419.58 252 441 252 C441 272.79 441 293.58 441 315 C461.79 315 482.58 315 504 315 C504 335.79 504 356.58 504 378 C524.79 378 545.58 378 567 378 C567 398.79 567 419.58 567 441 C587.79 441 608.58 441 630 441 C630 461.79 630 482.58 630 504 C650.79 504 671.58 504 693 504 C693 524.79 693 545.58 693 567 C713.79 567 734.58 567 756 567 C756 587.79 756 608.58 756 630 C797.58 630 839.16 630 882 630 C882 650.79 882 671.58 882 693 C923.58 693 965.16 693 1008 693 C1008 713.79 1008 734.58 1008 756 C1028.79 756 1049.58 756 1071 756 C1071 776.79 1071 797.58 1071 819 C1008.63 819 946.26 819 882 819 C882 798.21 882 777.42 882 756 C819.63 756 757.26 756 693 756 C693 859.95 693 963.9 693 1071 C651.42 1071 609.84 1071 567 1071 C567 1050.21 567 1029.42 567 1008 C587.79 1008 608.58 1008 630 1008 C630 924.84 630 841.68 630 756 C567.63 756 505.26 756 441 756 C441 859.95 441 963.9 441 1071 C399.42 1071 357.84 1071 315 1071 C315 1050.21 315 1029.42 315 1008 C335.79 1008 356.58 1008 378 1008 C378 924.84 378 841.68 378 756 C274.05 756 170.1 756 63 756 C63 735.21 63 714.42 63 693 C42.21 693 21.42 693 0 693 C0 672.21 0 651.42 0 630 C-20.79 630 -41.58 630 -63 630 C-63 567.63 -63 505.26 -63 441 C-42.21 441 -21.42 441 0 441 C0 357.84 0 274.68 0 189 C-41.58 189 -83.16 189 -126 189 C-126 168.21 -126 147.42 -126 126 C-84.42 126 -42.84 126 0 126 C0 84.42 0 42.84 0 0 Z " fill="#000000" transform="translate(1323,63)"/>
<path d="M0 0 C83.16 0 166.32 0 252 0 C252 20.79 252 41.58 252 63 C272.79 63 293.58 63 315 63 C315 104.58 315 146.16 315 189 C335.79 189 356.58 189 378 189 C378 209.79 378 230.58 378 252 C398.79 252 419.58 252 441 252 C441 272.79 441 293.58 441 315 C461.79 315 482.58 315 504 315 C504 335.79 504 356.58 504 378 C524.79 378 545.58 378 567 378 C567 398.79 567 419.58 567 441 C587.79 441 608.58 441 630 441 C630 461.79 630 482.58 630 504 C650.79 504 671.58 504 693 504 C693 524.79 693 545.58 693 567 C713.79 567 734.58 567 756 567 C756 587.79 756 608.58 756 630 C797.58 630 839.16 630 882 630 C882 650.79 882 671.58 882 693 C923.58 693 965.16 693 1008 693 C1008 713.79 1008 734.58 1008 756 C1028.79 756 1049.58 756 1071 756 C1071 776.79 1071 797.58 1071 819 C1008.63 819 946.26 819 882 819 C882 798.21 882 777.42 882 756 C819.63 756 757.26 756 693 756 C693 859.95 693 963.9 693 1071 C651.42 1071 609.84 1071 567 1071 C567 1050.21 567 1029.42 567 1008 C587.79 1008 608.58 1008 630 1008 C630 924.84 630 841.68 630 756 C567.63 756 505.26 756 441 756 C441 859.95 441 963.9 441 1071 C399.42 1071 357.84 1071 315 1071 C315 1050.21 315 1029.42 315 1008 C335.79 1008 356.58 1008 378 1008 C378 924.84 378 841.68 378 756 C274.05 756 170.1 756 63 756 C63 735.21 63 714.42 63 693 C42.21 693 21.42 693 0 693 C0 672.21 0 651.42 0 630 C-20.79 630 -41.58 630 -63 630 C-63 567.63 -63 505.26 -63 441 C-42.21 441 -21.42 441 0 441 C0 357.84 0 274.68 0 189 C-41.58 189 -83.16 189 -126 189 C-126 168.21 -126 147.42 -126 126 C-84.42 126 -42.84 126 0 126 C0 84.42 0 42.84 0 0 Z " fill="#000000" transform="translate(126,63)"/>
<path d="M0 0 C20.79 0 41.58 0 63 0 C63 103.95 63 207.9 63 315 C83.79 315 104.58 315 126 315 C126 335.79 126 356.58 126 378 C167.58 378 209.16 378 252 378 C252 398.79 252 419.58 252 441 C376.74 441 501.48 441 630 441 C630 461.79 630 482.58 630 504 C671.58 504 713.16 504 756 504 C756 524.79 756 545.58 756 567 C735.21 567 714.42 567 693 567 C693 670.95 693 774.9 693 882 C651.42 882 609.84 882 567 882 C567 861.21 567 840.42 567 819 C587.79 819 608.58 819 630 819 C630 735.84 630 652.68 630 567 C567.63 567 505.26 567 441 567 C441 670.95 441 774.9 441 882 C399.42 882 357.84 882 315 882 C315 861.21 315 840.42 315 819 C335.79 819 356.58 819 378 819 C378 735.84 378 652.68 378 567 C274.05 567 170.1 567 63 567 C63 546.21 63 525.42 63 504 C42.21 504 21.42 504 0 504 C0 483.21 0 462.42 0 441 C-20.79 441 -41.58 441 -63 441 C-63 378.63 -63 316.26 -63 252 C-42.21 252 -21.42 252 0 252 C0 168.84 0 85.68 0 0 Z " fill="#FF4F5E" transform="translate(2520,253)"/>
<path d="M0 0 C20.79 0 41.58 0 63 0 C63 103.95 63 207.9 63 315 C83.79 315 104.58 315 126 315 C126 335.79 126 356.58 126 378 C167.58 378 209.16 378 252 378 C252 398.79 252 419.58 252 441 C376.74 441 501.48 441 630 441 C630 461.79 630 482.58 630 504 C671.58 504 713.16 504 756 504 C756 524.79 756 545.58 756 567 C735.21 567 714.42 567 693 567 C693 670.95 693 774.9 693 882 C651.42 882 609.84 882 567 882 C567 861.21 567 840.42 567 819 C587.79 819 608.58 819 630 819 C630 735.84 630 652.68 630 567 C567.63 567 505.26 567 441 567 C441 670.95 441 774.9 441 882 C399.42 882 357.84 882 315 882 C315 861.21 315 840.42 315 819 C335.79 819 356.58 819 378 819 C378 735.84 378 652.68 378 567 C274.05 567 170.1 567 63 567 C63 546.21 63 525.42 63 504 C42.21 504 21.42 504 0 504 C0 483.21 0 462.42 0 441 C-20.79 441 -41.58 441 -63 441 C-63 378.63 -63 316.26 -63 252 C-42.21 252 -21.42 252 0 252 C0 168.84 0 85.68 0 0 Z " fill="#FF4F5E" transform="translate(1323,252)"/>
<path d="M0 0 C20.79 0 41.58 0 63 0 C63 103.95 63 207.9 63 315 C83.79 315 104.58 315 126 315 C126 335.79 126 356.58 126 378 C167.58 378 209.16 378 252 378 C252 398.79 252 419.58 252 441 C376.74 441 501.48 441 630 441 C630 461.79 630 482.58 630 504 C671.58 504 713.16 504 756 504 C756 524.79 756 545.58 756 567 C735.21 567 714.42 567 693 567 C693 670.95 693 774.9 693 882 C651.42 882 609.84 882 567 882 C567 861.21 567 840.42 567 819 C587.79 819 608.58 819 630 819 C630 735.84 630 652.68 630 567 C567.63 567 505.26 567 441 567 C441 670.95 441 774.9 441 882 C399.42 882 357.84 882 315 882 C315 861.21 315 840.42 315 819 C335.79 819 356.58 819 378 819 C378 735.84 378 652.68 378 567 C274.05 567 170.1 567 63 567 C63 546.21 63 525.42 63 504 C42.21 504 21.42 504 0 504 C0 483.21 0 462.42 0 441 C-20.79 441 -41.58 441 -63 441 C-63 378.63 -63 316.26 -63 252 C-42.21 252 -21.42 252 0 252 C0 168.84 0 85.68 0 0 Z " fill="#FF4F5E" transform="translate(126,252)"/>
<path d="M0 0 C20.79 0 41.58 0 63 0 C63 103.95 63 207.9 63 315 C21.42 315 -20.16 315 -63 315 C-63 294.21 -63 273.42 -63 252 C-42.21 252 -21.42 252 0 252 C0 168.84 0 85.68 0 0 Z " fill="#3C3C3C" transform="translate(3150,820)"/>
<path d="M0 0 C20.79 0 41.58 0 63 0 C63 103.95 63 207.9 63 315 C21.42 315 -20.16 315 -63 315 C-63 294.21 -63 273.42 -63 252 C-42.21 252 -21.42 252 0 252 C0 168.84 0 85.68 0 0 Z " fill="#3C3C3C" transform="translate(2898,820)"/>
<path d="M0 0 C20.79 0 41.58 0 63 0 C63 103.95 63 207.9 63 315 C21.42 315 -20.16 315 -63 315 C-63 294.21 -63 273.42 -63 252 C-42.21 252 -21.42 252 0 252 C0 168.84 0 85.68 0 0 Z " fill="#3C3C3C" transform="translate(1953,819)"/>
<path d="M0 0 C20.79 0 41.58 0 63 0 C63 103.95 63 207.9 63 315 C21.42 315 -20.16 315 -63 315 C-63 294.21 -63 273.42 -63 252 C-42.21 252 -21.42 252 0 252 C0 168.84 0 85.68 0 0 Z " fill="#3C3C3C" transform="translate(1701,819)"/>
<path d="M0 0 C20.79 0 41.58 0 63 0 C63 103.95 63 207.9 63 315 C21.42 315 -20.16 315 -63 315 C-63 294.21 -63 273.42 -63 252 C-42.21 252 -21.42 252 0 252 C0 168.84 0 85.68 0 0 Z " fill="#3C3C3C" transform="translate(756,819)"/>
<path d="M0 0 C20.79 0 41.58 0 63 0 C63 103.95 63 207.9 63 315 C21.42 315 -20.16 315 -63 315 C-63 294.21 -63 273.42 -63 252 C-42.21 252 -21.42 252 0 252 C0 168.84 0 85.68 0 0 Z " fill="#3C3C3C" transform="translate(504,819)"/>
<path d="M0 0 C83.16 0 166.32 0 252 0 C252 20.79 252 41.58 252 63 C168.84 63 85.68 63 0 63 C0 42.21 0 21.42 0 0 Z " fill="#FFD558" transform="translate(2520,64)"/>
<path d="M0 0 C83.16 0 166.32 0 252 0 C252 20.79 252 41.58 252 63 C168.84 63 85.68 63 0 63 C0 42.21 0 21.42 0 0 Z " fill="#FFD558" transform="translate(1323,63)"/>
<path d="M0 0 C83.16 0 166.32 0 252 0 C252 20.79 252 41.58 252 63 C168.84 63 85.68 63 0 63 C0 42.21 0 21.42 0 0 Z " fill="#FFD558" transform="translate(126,63)"/>
<path d="M0 0 C41.58 0 83.16 0 126 0 C126 20.79 126 41.58 126 63 C84.42 63 42.84 63 0 63 C0 42.21 0 21.42 0 0 Z " fill="#FFD558" transform="translate(3150,757)"/>
<path d="M0 0 C41.58 0 83.16 0 126 0 C126 20.79 126 41.58 126 63 C84.42 63 42.84 63 0 63 C0 42.21 0 21.42 0 0 Z " fill="#FFD558" transform="translate(1953,756)"/>
<path d="M0 0 C41.58 0 83.16 0 126 0 C126 20.79 126 41.58 126 63 C84.42 63 42.84 63 0 63 C0 42.21 0 21.42 0 0 Z " fill="#FFD558" transform="translate(756,756)"/>
<path d="M0 0 C41.58 0 83.16 0 126 0 C126 20.79 126 41.58 126 63 C84.42 63 42.84 63 0 63 C0 42.21 0 21.42 0 0 Z " fill="#3C3C3C" transform="translate(2394,190)"/>
<path d="M0 0 C41.58 0 83.16 0 126 0 C126 20.79 126 41.58 126 63 C84.42 63 42.84 63 0 63 C0 42.21 0 21.42 0 0 Z " fill="#3C3C3C" transform="translate(1197,189)"/>
<path d="M0 0 C41.58 0 83.16 0 126 0 C126 20.79 126 41.58 126 63 C84.42 63 42.84 63 0 63 C0 42.21 0 21.42 0 0 Z " fill="#3C3C3C" transform="translate(0,189)"/>
<path d="M0 0 C20.79 0 41.58 0 63 0 C63 20.79 63 41.58 63 63 C42.21 63 21.42 63 0 63 C0 42.21 0 21.42 0 0 Z " fill="#3C3C3C" transform="translate(2646,190)"/>
<path d="M0 0 C20.79 0 41.58 0 63 0 C63 20.79 63 41.58 63 63 C42.21 63 21.42 63 0 63 C0 42.21 0 21.42 0 0 Z " fill="#3C3C3C" transform="translate(1449,189)"/>
<path d="M0 0 C20.79 0 41.58 0 63 0 C63 20.79 63 41.58 63 63 C42.21 63 21.42 63 0 63 C0 42.21 0 21.42 0 0 Z " fill="#3C3C3C" transform="translate(252,189)"/>
<path d="M0 0 C20.79 0 41.58 0 63 0 C63 20.79 63 41.58 63 63 C42.21 63 21.42 63 0 63 C0 42.21 0 21.42 0 0 Z " fill="#FFD558" transform="translate(2772,127)"/>
<path d="M0 0 C20.79 0 41.58 0 63 0 C63 20.79 63 41.58 63 63 C42.21 63 21.42 63 0 63 C0 42.21 0 21.42 0 0 Z " fill="#FFD558" transform="translate(1575,126)"/>
<path d="M0 0 C20.79 0 41.58 0 63 0 C63 20.79 63 41.58 63 63 C42.21 63 21.42 63 0 63 C0 42.21 0 21.42 0 0 Z " fill="#FFD558" transform="translate(378,126)"/>
</svg>
